<svg width="202" height="202" viewBox="0 0 202 202" fill="none" xmlns="http://www.w3.org/2000/svg">
<path d="M101 16.7783C54.77 16.7783 17.25 54.2983 17.25 100.528C17.25 146.758 54.77 184.278 101 184.278C147.23 184.278 184.75 146.758 184.75 100.528C184.75 54.2983 147.23 16.7783 101 16.7783ZM101 108.903C96.3938 108.903 92.625 105.135 92.625 100.528V67.0283C92.625 62.4221 96.3938 58.6533 101 58.6533C105.606 58.6533 109.375 62.4221 109.375 67.0283V100.528C109.375 105.135 105.606 108.903 101 108.903ZM109.375 142.403H92.625V125.653H109.375V142.403Z" fill="#A7B0BD"/>
</svg>
