<svg width="169" height="168" viewBox="0 0 169 168" fill="none" xmlns="http://www.w3.org/2000/svg">
<path d="M151.5 0.25H17.584C8.37149 0.25 0.833984 7.7875 0.833984 17V167.75L34.2502 134.25H151.5C160.713 134.25 168.25 126.713 168.25 117.5V17C168.25 7.7875 160.713 0.25 151.5 0.25ZM92.8752 100.75H76.1252V84H92.8752V100.75ZM92.8752 58.875C92.8752 63.4813 89.1065 67.25 84.5002 67.25C79.894 67.25 76.1252 63.4813 76.1252 58.875V42.125C76.1252 37.5187 79.894 33.75 84.5002 33.75C89.1065 33.75 92.8752 37.5187 92.8752 42.125V58.875Z" fill="#667080"/>
</svg>
