<svg xmlns="http://www.w3.org/2000/svg" viewBox="0 0 504 115.3" overflow="visible">
  <g>
    <polygon class="st0 st1 svg-first" points="150.3,36.9 150.3,46.3 165.1,46.3 165.1,87.3 175.9,87.3 175.9,46.3 190.5,46.3 190.5,46.2 180.1,36.9"></polygon>
    <path class="st0 st1 svg-first" d="M253.1 53.1c0-9.4-6.4-16.3-16.9-16.3h-23.6v50.5h10.7V46.1h11.3c4.3 0 7.6 2.7 7.6 7s-3.2 7-7.6 7h-7.9l4.5 9.2 9.9 18.1h12.3L242 68.2c5.5-1.4 11.1-6.1 11.1-15.1zM300.2 36.1c-15.2 0-26.3 10.9-26.3 26.1s11.1 26.1 26.3 26.1c15.3 0 26.4-10.9 26.4-26.1s-11.1-26.1-26.4-26.1zm0 42.6c-9.3 0-15.3-7.2-15.3-16.6 0-9.5 6-16.6 15.3-16.6s15.4 7.1 15.4 16.6c0 9.4-6.1 16.6-15.4 16.6z"></path>
    <polygon class="st0 st1 svg-first" points="383.7,69.6 360.4,36.9 349.3,36.9 349.3,87.3 360.1,87.3 360.1,53.4 384.1,87.3 394.5,87.3 394.5,36.9 383.7,36.9"></polygon>
    <polygon class="st0 st1 svg-first" points="419.6,36.9 419.6,87.3 430.3,87.3 430.3,45 419.7,36.9"></polygon>
    <path class="st0 st1 svg-first" d="M479.5 78.7c-8.8 0-15.4-7-15.4-16.6s6.7-16.6 15.4-16.6c5.6 0 10.1 3.2 12.2 7.3l9.2-4.5c-3.6-6.3-10-12.3-21.5-12.3-14.8 0-26.5 10.6-26.5 26.1s11.7 26.1 26.5 26.1c11.5 0 17.8-6.1 21.5-12.4l-9.2-4.5c-2.1 4.2-6.6 7.4-12.2 7.4zM102.1 47.9l-4.5-2.5v-5.7c0-19.5-15.8-35.3-35.3-35.3S27 20.3 27 39.8v5.5L22.1 48C5.3 57.8-.4 79.4 9.4 96.3c4.8 8.1 12.4 14 21.5 16.4 9 2.4 18.7 1.1 26.8-3.6l4.4-2.8 4.4 2.8c5.4 3.1 11.5 4.8 17.7 4.8 3 0 6.1-.4 9.1-1.2 9.1-2.4 16.8-8.2 21.5-16.4 9.9-16.9 4.2-38.6-12.7-48.4zm-68.7-8.2c0-15.9 13-28.9 28.9-28.9s28.9 13 28.9 28.9v1.7L62.3 24.8 33.4 41.5v-1.8zM27 52.6V63h.1v22.8L56 102.5l-1.6 1c-6.7 3.9-14.4 4.9-21.9 3-7.5-2-13.7-6.7-17.6-13.4-8-13.8-3.4-31.5 10.4-39.5l1.7-1zm32.1 44.5L33.3 82.2V63h.1V52.2l25.8 14.9-.1 30zM36.5 46.8l25.8-14.9 25.8 14.9-25.8 14.9-25.8-14.9zm28.8 50.4l.1-30.2 25.8-14.9v10.5h.1v19.5l-26 15.1zm44.1-4.2c-3.9 6.7-10.1 11.4-17.6 13.4-7.4 2-15.2.9-21.9-2.9l-1.4-.9L97.3 86l.2-.1V62.7h.1v-9.9l1.3.7c13.8 8 18.5 25.8 10.5 39.5z"></path>
  </g>
</svg>
