<?xml version="1.0" encoding="UTF-8"?>
<svg width="200px" height="38px" viewBox="0 0 200 38" version="1.1" xmlns="http://www.w3.org/2000/svg" xmlns:xlink="http://www.w3.org/1999/xlink">
    <title>Group 2</title>
    <g id="Purchase-Process-Workflow" stroke="none" stroke-width="1" fill="none" fill-rule="evenodd">
        <g id="1-Sign-In" transform="translate(-620.000000, -230.000000)" fill="#FFFFFF">
            <g id="Group-2" transform="translate(620.000000, 230.000000)">
                <text id="with" font-family="ProximaNova-Medium, Proxima Nova" font-size="18" font-weight="400" letter-spacing="0.375">
                    <tspan x="0" y="27">with</tspan>
                </text>
                <g id="ethereum-eth-logo-full-horizontal" transform="translate(49.000000, 0.000000)" fill-rule="nonzero">
                    <path d="M43,21.9709443 C42.9952901,22.2554484 42.7648873,22.4826561 42.484375,22.4794189 L32.9882813,22.4794189 C33.2317708,24.8619855 34.9934896,27.0411622 37.4856771,27.0411622 C39.1901042,27.0411622 40.4505208,26.3874092 41.3958333,25.0072639 C41.4852062,24.8600253 41.6408765,24.7674646 41.8111979,24.7602906 C41.9376226,24.7566419 42.059946,24.8059793 42.1493779,24.8966908 C42.2388099,24.9874024 42.2874514,25.1114759 42.2838542,25.2397094 C42.2841823,25.327348 42.2592938,25.4131796 42.2122396,25.4866828 C41.2526042,27.1719128 39.3476562,28 37.4856771,28 C34.2916667,28 32,25.094431 32,22 C32,18.905569 34.2773438,16 37.4856771,16 C40.6940104,16 42.9856771,18.8765133 43,21.9709443 L43,21.9709443 Z M41.9830729,21.5205811 C41.7825521,19.1380145 39.9778646,16.9588378 37.4856771,16.9588378 C34.9934896,16.9588378 33.2317708,19.1380145 32.9882812,21.5205811 L41.9830729,21.5205811 Z" id="Shape"></path>
                    <path d="M54.5195873,15.2677776 C54.7815952,15.275455 54.9922116,15.4882396 54.9998108,15.7529447 C55.0034656,15.8827157 54.9540453,16.0082769 54.8631816,16.100076 C54.7723178,16.1918752 54.648036,16.2418042 54.5195873,16.2381118 L51.9292907,16.2381118 L51.9292907,26.5148329 C51.9269208,26.7817852 51.7132994,26.9976057 51.4490672,27 C51.1870593,26.9923226 50.9764429,26.779538 50.9688437,26.5148329 L50.9688437,16.2381118 L48.4804127,16.2381118 C48.351964,16.2418042 48.2276822,16.1918752 48.1368184,16.100076 C48.0459547,16.0082769 47.9965344,15.8827157 48.0001892,15.7529447 C48.0025592,15.4859923 48.2161805,15.2701719 48.4804127,15.2677776 L50.9688437,15.2677776 L50.9688437,11.5187591 C50.9693544,11.2621258 51.1544587,11.0439476 51.4054105,11.004188 C51.5428177,10.9857505 51.6813524,11.02876 51.7847992,11.1219732 C51.888246,11.2151863 51.9463212,11.3493368 51.9438429,11.4893551 L51.9438429,15.2677776 L54.5195873,15.2677776 Z" id="Path"></path>
                    <path d="M69,20.4103604 L69,26.5059429 C68.9927807,26.7653965 68.7926928,26.9739597 68.5437825,26.9814847 C68.4217547,26.9851039 68.3036857,26.9361655 68.2173642,26.8461875 C68.1310426,26.7562096 68.0840928,26.6331394 68.0875649,26.5059429 L68.0875649,20.4103604 C68.0875649,18.3496789 66.9677583,16.3034077 64.7696193,16.3034077 C61.9493655,16.3034077 60.7327854,18.8684518 60.8986827,21.5055478 C60.8986827,21.5775996 60.9263322,21.8802172 60.9263322,21.9234482 L60.9263322,26.4915325 C60.9258471,26.7430745 60.749996,26.9569242 60.511589,26.9958951 C60.3810508,27.0139668 60.2494412,26.9718105 60.1511657,26.8804466 C60.0528901,26.7890827 59.997718,26.6575937 60,26.5203532 L60,6.47554189 C60.0023239,6.21388561 60.2052664,6.00234683 60.4562899,6 C60.7052003,6.00752509 60.9052882,6.21608827 60.9125075,6.47554189 L60.9125075,17.8020852 C61.7005195,16.3322284 63.1106465,15.3379135 64.7557945,15.3379135 C67.4654501,15.3379135 69,17.8020852 69,20.4103604 L69,20.4103604 Z" id="Path"></path>
                    <path d="M86,21.9709443 C85.9952901,22.2554484 85.7648873,22.4826561 85.484375,22.4794189 L75.9882813,22.4794189 C76.2317708,24.8619855 77.9934896,27.0411622 80.4856771,27.0411622 C82.1901042,27.0411622 83.4505208,26.3874092 84.3958333,25.0072639 C84.4852062,24.8600253 84.6408765,24.7674646 84.8111979,24.7602906 C84.9376226,24.7566419 85.059946,24.8059793 85.1493779,24.8966908 C85.2388099,24.9874024 85.2874514,25.1114759 85.2838542,25.2397094 C85.2841823,25.327348 85.2592938,25.4131796 85.2122396,25.4866828 C84.2526042,27.1719128 82.3476562,28 80.4856771,28 C77.2916667,28 75,25.094431 75,22 C75,18.905569 77.2773437,16 80.4856771,16 C83.6653646,16 85.9856771,18.8765133 86,21.9709443 L86,21.9709443 Z M84.96875,21.5205811 C84.7682292,19.1380145 82.9635417,16.9588378 80.4713542,16.9588378 C77.9791667,16.9588378 76.2174479,19.1380145 75.9739583,21.5205811 L84.96875,21.5205811 Z" id="Shape"></path>
                    <path d="M97.9988572,15.4695281 C98.0161813,15.749452 97.8344993,15.9930157 97.5921317,16.0147865 C95.0336966,16.4540225 93.8791208,18.8622472 93.8791208,21.6642697 L93.8791208,26.4655732 C93.8786603,26.7299574 93.7117717,26.954725 93.4855154,26.9956855 C93.3616301,27.0146799 93.2367282,26.9703714 93.1434613,26.874343 C93.0501945,26.7783145 92.9978343,26.6401125 93.0000687,26.4958653 L93.0000687,15.5452584 C93.0005291,15.2808742 93.1674178,15.0561066 93.3936741,15.0151461 C93.5175594,14.9961517 93.6424612,15.0404602 93.7357281,15.1364887 C93.828995,15.2325171 93.8813552,15.3707191 93.8791208,15.5149663 L93.8791208,17.7414382 C94.6007307,16.3328539 96.0308303,15 97.5265308,15 C97.7495738,15 97.9988572,15.1817528 97.9988572,15.4695281 Z" id="Path"></path>
                    <path d="M113,21.9709443 C112.99529,22.2554484 112.764887,22.4826561 112.484375,22.4794189 L102.988281,22.4794189 C103.231771,24.8619855 104.99349,27.0411622 107.485677,27.0411622 C109.190104,27.0411622 110.450521,26.3874092 111.395833,25.0072639 C111.485206,24.8600253 111.640876,24.7674646 111.811198,24.7602906 C111.937623,24.7566419 112.059946,24.8059793 112.149378,24.8966908 C112.23881,24.9874024 112.287451,25.1114759 112.283854,25.2397094 C112.284182,25.327348 112.259294,25.4131796 112.21224,25.4866828 C111.252604,27.1719128 109.347656,28 107.485677,28 C104.291667,28 102,25.094431 102,22 C102,18.905569 104.277344,16 107.485677,16 C110.69401,16 112.985677,18.8765133 113,21.9709443 L113,21.9709443 Z M111.983073,21.5205811 C111.782552,19.1380145 109.977865,16.9588378 107.485677,16.9588378 C104.99349,16.9588378 103.231771,19.1380145 102.988281,21.5205811 L111.983073,21.5205811 Z" id="Shape"></path>
                    <path d="M128,16.5184043 L128,27.2602065 C127.992746,27.5266011 127.79173,27.7407438 127.541665,27.7484702 C127.419072,27.7521862 127.300455,27.7019385 127.213733,27.6095535 C127.127011,27.5171684 127.079844,27.3908058 127.083332,27.2602065 L127.083332,25.2183763 C126.319443,26.8311262 124.972221,28 123.249999,28 C120.513889,28 119,25.4699061 119,22.7918535 L119,16.5036084 C119.002262,16.2349523 119.206146,16.0177543 119.458333,16.0153447 C119.708398,16.0230711 119.909414,16.2372138 119.916667,16.5036084 L119.916667,22.7918535 C119.916667,24.907663 121.041666,27.0086767 123.249999,27.0086767 C126.347221,27.0086767 127.083332,23.9163397 127.083332,20.4984935 L127.083332,16.4888126 C127.085417,16.3281944 127.160437,16.1786116 127.284611,16.0874833 C127.408785,15.9963551 127.566714,15.9749824 127.708332,16.0301406 C127.886593,16.1184042 128.000442,16.3089938 128,16.5184043 L128,16.5184043 Z" id="Path"></path>
                    <path d="M151,20.1813417 L151,26.4909984 C150.9928,26.7583001 150.793252,26.973172 150.545014,26.9809247 C150.423316,26.9846533 150.305566,26.9342346 150.219477,26.8415349 C150.133388,26.7488353 150.086565,26.6220424 150.090028,26.4909984 L150.090028,20.1813417 C150.090028,18.0583277 148.973245,15.9798526 146.78104,15.9798526 C144.023549,15.9798526 142.975703,19.1569503 142.975703,21.621428 L142.975703,26.4909984 C142.968503,26.7583001 142.768956,26.973172 142.520717,26.9809247 C142.399019,26.9846533 142.281269,26.9342346 142.19518,26.8415349 C142.109092,26.7488353 142.062269,26.6220424 142.065731,26.4909984 L142.065731,20.1813417 C142.065731,18.0583277 140.948948,15.9798526 138.756743,15.9798526 C135.971678,15.9798526 134.827319,18.3404065 134.923831,21.4878118 C134.923831,21.562043 134.951406,21.6956593 134.923831,21.740198 L134.923831,26.4761522 C134.923348,26.7353029 134.747971,26.9556213 134.510208,26.9957709 C134.380022,27.0143893 134.248768,26.9709579 134.150758,26.8768303 C134.052747,26.7827028 133.997724,26.6472364 134,26.5058447 L134,15.7423126 C134.000556,15.4831618 134.175932,15.2628434 134.413696,15.2226938 C134.543882,15.2040754 134.675136,15.2475069 134.773146,15.3416344 C134.871156,15.4357619 134.92618,15.5712283 134.923831,15.7126201 L134.923831,17.5090164 C135.709716,15.9946988 137.116036,15 138.756743,15 C140.618049,15 142.065731,16.2767776 142.658592,18.132559 C143.416902,16.2916239 144.892159,15 146.78104,15 C149.469593,15 151,17.5090164 151,20.1813417 L151,20.1813417 Z" id="Path"></path>
                    <polygon id="Path" opacity="0.600000024" points="11.4930765 14 0 19.2119816 11.4930765 26 23 19.2119816"></polygon>
                    <polygon id="Path" opacity="0.449999988" points="0 19.1696094 12 26 12 0"></polygon>
                    <polygon id="Path" opacity="0.800000012" points="11 0 11 26 23 19.1696094"></polygon>
                    <polygon id="Path" opacity="0.449999988" points="0 21 12 38 12 28.1196581"></polygon>
                    <polygon id="Path" opacity="0.800000012" points="11 28.1196581 11 38 23 21"></polygon>
                </g>
            </g>
        </g>
    </g>
</svg>